<?xml version="1.0" encoding="utf-8"?>
<!-- Generator: Adobe Illustrator 25.3.0, SVG Export Plug-In . SVG Version: 6.00 Build 0)  -->
<svg version="1.1" id="_160_data_arranging_flatline"
	 xmlns="http://www.w3.org/2000/svg" xmlns:xlink="http://www.w3.org/1999/xlink" x="0px" y="0px" viewBox="0 0 406 306"
	 style="enable-background:new 0 0 406 306;" xml:space="preserve">
<style type="text/css">
	.st0{fill:#D1D3D4;}
	.st1{fill:#231F20;}
	.st2{fill:#FFFFFF;}
	.st3{fill:#68E1FD;}
</style>
<path class="st0" d="M351.9,226.3H54.1c-0.3,0-0.5-0.2-0.5-0.5c0-0.3,0.2-0.5,0.5-0.5h297.8c0.3,0,0.5,0.2,0.5,0.5
	C352.4,226.1,352.2,226.3,351.9,226.3z"/>
<rect x="246" y="63.8" class="st1" width="71.5" height="158"/>
<path class="st1" d="M317.6,222.4H246c-0.3,0-0.5-0.2-0.5-0.5c0,0,0,0,0,0V63.8c0-0.3,0.2-0.5,0.5-0.5c0,0,0,0,0,0h71.5
	c0.3,0,0.5,0.2,0.5,0.5c0,0,0,0,0,0v158.1C318.1,222.1,317.8,222.4,317.6,222.4C317.6,222.4,317.6,222.4,317.6,222.4z M246.6,221.4
	H317v-157h-70.5V221.4z"/>
<path class="st2" d="M246.1,60.4h71.5c3.1,0,5.7,2.5,5.7,5.7v12.1c0,3.1-2.5,5.7-5.7,5.7h-71.5c-3.1,0-5.7-2.5-5.7-5.7V66.1
	C240.4,63,242.9,60.4,246.1,60.4z"/>
<path class="st1" d="M317.5,84.4h-71.5c-3.4,0-6.2-2.8-6.2-6.2V66.1c0-3.4,2.8-6.2,6.2-6.2h71.5c3.4,0,6.2,2.8,6.3,6.2c0,0,0,0,0,0
	v12.1C323.8,81.6,321,84.4,317.5,84.4C317.6,84.4,317.5,84.4,317.5,84.4z M246.1,60.9c-2.9,0-5.2,2.3-5.2,5.2v12.1
	c0,2.9,2.3,5.2,5.2,5.2h71.5c2.9,0,5.2-2.3,5.2-5.2V66.1c0-2.9-2.3-5.2-5.2-5.2L246.1,60.9z"/>
<path class="st0" d="M250.2,74.7c-1.4,0-2.5-1.1-2.5-2.5c0-1.4,1.1-2.5,2.5-2.5c1.4,0,2.5,1.1,2.5,2.5
	C252.7,73.6,251.6,74.7,250.2,74.7z M250.2,70.6c-0.8,0-1.5,0.7-1.5,1.5c0,0.8,0.7,1.5,1.5,1.5c0.8,0,1.5-0.7,1.5-1.5
	C251.7,71.3,251,70.6,250.2,70.6z"/>
<path class="st0" d="M258.7,74.7c-1.4,0-2.5-1.1-2.5-2.5c0-1.4,1.1-2.5,2.5-2.5s2.5,1.1,2.5,2.5c0,0,0,0,0,0
	C261.3,73.6,260.1,74.7,258.7,74.7z M258.7,70.6c-0.8,0-1.5,0.7-1.5,1.5c0,0.8,0.7,1.5,1.5,1.5c0.8,0,1.5-0.7,1.5-1.5c0,0,0,0,0,0
	C260.3,71.3,259.6,70.6,258.7,70.6z"/>
<path class="st0" d="M315.5,73.8h-49.2c-0.3,0-0.5-0.2-0.5-0.5V71c0-0.3,0.2-0.5,0.5-0.5h49.2c0.3,0,0.5,0.2,0.5,0.5v2.4
	C315.9,73.6,315.7,73.8,315.5,73.8z M266.7,72.8h48.2v-1.3h-48.2V72.8z"/>
<path class="st2" d="M246.1,89.3h71.5c3.1,0,5.7,2.5,5.7,5.7v12.1c0,3.1-2.5,5.7-5.7,5.7h-71.5c-3.1,0-5.7-2.5-5.7-5.7V95
	C240.4,91.9,242.9,89.3,246.1,89.3z"/>
<path class="st1" d="M317.5,113.3h-71.5c-3.4,0-6.2-2.8-6.2-6.2V95c0-3.4,2.8-6.2,6.2-6.2h71.5c3.4,0,6.2,2.8,6.3,6.2c0,0,0,0,0,0
	v12.1C323.8,110.6,321,113.3,317.5,113.3C317.6,113.3,317.5,113.3,317.5,113.3z M246.1,89.9c-2.9,0-5.2,2.3-5.2,5.2v12.1
	c0,2.9,2.3,5.2,5.2,5.2h71.5c2.9,0,5.2-2.3,5.2-5.2V95c0-2.9-2.3-5.2-5.2-5.2H246.1z"/>
<path class="st0" d="M250.2,103.6c-1.4,0-2.5-1.1-2.5-2.5c0-1.4,1.1-2.5,2.5-2.5c1.4,0,2.5,1.1,2.5,2.5
	C252.7,102.5,251.6,103.6,250.2,103.6z M250.2,99.6c-0.8,0-1.5,0.7-1.5,1.5s0.7,1.5,1.5,1.5c0.8,0,1.5-0.7,1.5-1.5
	C251.7,100.2,251,99.6,250.2,99.6z"/>
<path class="st0" d="M258.7,103.6c-1.4,0-2.5-1.1-2.5-2.5c0-1.4,1.1-2.5,2.5-2.5s2.5,1.1,2.5,2.5c0,0,0,0,0,0
	C261.3,102.5,260.1,103.6,258.7,103.6z M258.7,99.6c-0.8,0-1.5,0.7-1.5,1.5c0,0.8,0.7,1.5,1.5,1.5c0.8,0,1.5-0.7,1.5-1.5
	c0,0,0,0,0,0C260.3,100.2,259.6,99.6,258.7,99.6z"/>
<path class="st0" d="M315.5,102.8h-49.2c-0.3,0-0.5-0.2-0.5-0.5v-2.4c0-0.3,0.2-0.5,0.5-0.5h49.2c0.3,0,0.5,0.2,0.5,0.5v2.4
	C316,102.5,315.8,102.8,315.5,102.8C315.5,102.8,315.5,102.8,315.5,102.8z M266.7,101.8h48.2v-1.4h-48.2V101.8z"/>
<path class="st2" d="M246.1,118.3h71.5c3.1,0,5.7,2.5,5.7,5.7v12.1c0,3.1-2.5,5.7-5.7,5.7h-71.5c-3.1,0-5.7-2.5-5.7-5.7V124
	C240.4,120.8,242.9,118.3,246.1,118.3z"/>
<path class="st1" d="M317.5,142.3h-71.5c-3.4,0-6.2-2.8-6.2-6.2V124c0-3.4,2.8-6.2,6.2-6.2h71.5c3.4,0,6.2,2.8,6.3,6.2c0,0,0,0,0,0
	V136C323.8,139.5,321,142.3,317.5,142.3C317.6,142.3,317.5,142.3,317.5,142.3z M246.1,118.8c-2.9,0-5.2,2.3-5.2,5.2V136
	c0,2.9,2.3,5.2,5.2,5.2h71.5c2.9,0,5.2-2.3,5.2-5.2V124c0-2.9-2.3-5.2-5.2-5.2H246.1z"/>
<path class="st0" d="M250.2,132.5c-1.4,0-2.5-1.1-2.5-2.5c0-1.4,1.1-2.5,2.5-2.5c1.4,0,2.5,1.1,2.5,2.5
	C252.7,131.4,251.6,132.5,250.2,132.5z M250.2,128.5c-0.8,0-1.5,0.7-1.5,1.5s0.7,1.5,1.5,1.5c0.8,0,1.5-0.7,1.5-1.5
	C251.7,129.2,251,128.5,250.2,128.5z"/>
<path class="st0" d="M258.7,132.5c-1.4,0-2.5-1.1-2.5-2.5c0-1.4,1.1-2.5,2.5-2.5s2.5,1.1,2.5,2.5c0,0,0,0,0,0
	C261.3,131.4,260.1,132.5,258.7,132.5z M258.7,128.5c-0.8,0-1.5,0.7-1.5,1.5c0,0.8,0.7,1.5,1.5,1.5c0.8,0,1.5-0.7,1.5-1.5
	c0,0,0,0,0,0C260.3,129.2,259.6,128.5,258.7,128.5z"/>
<path class="st0" d="M315.5,131.7h-49.2c-0.3,0-0.5-0.2-0.5-0.5v-2.4c0-0.3,0.2-0.5,0.5-0.5h49.2c0.3,0,0.5,0.2,0.5,0.5v2.4
	C316,131.5,315.7,131.7,315.5,131.7z M266.7,130.7h48.2v-1.4h-48.2V130.7z"/>
<path class="st2" d="M246.1,147.2h71.5c3.1,0,5.7,2.5,5.7,5.7V165c0,3.1-2.5,5.7-5.7,5.7h-71.5c-3.1,0-5.7-2.5-5.7-5.7v-12.1
	C240.4,149.7,242.9,147.2,246.1,147.2z"/>
<path class="st1" d="M317.5,171.2h-71.5c-3.4,0-6.2-2.8-6.2-6.2v-12.1c0-3.4,2.8-6.2,6.2-6.2h71.5c3.4,0,6.2,2.8,6.3,6.2
	c0,0,0,0,0,0V165C323.8,168.4,321,171.2,317.5,171.2C317.6,171.2,317.5,171.2,317.5,171.2z M246.1,147.7c-2.9,0-5.2,2.3-5.2,5.2V165
	c0,2.9,2.3,5.2,5.2,5.2h71.5c2.9,0,5.2-2.3,5.2-5.2v-12.1c0-2.9-2.3-5.2-5.2-5.2L246.1,147.7z"/>
<path class="st0" d="M250.2,161.5c-1.4,0-2.5-1.1-2.5-2.5c0-1.4,1.1-2.5,2.5-2.5c1.4,0,2.5,1.1,2.5,2.5
	C252.7,160.3,251.6,161.5,250.2,161.5z M250.2,157.4c-0.8,0-1.5,0.7-1.5,1.5c0,0.8,0.7,1.5,1.5,1.5c0.8,0,1.5-0.7,1.5-1.5
	C251.7,158.1,251,157.4,250.2,157.4z"/>
<path class="st0" d="M258.7,161.5c-1.4,0-2.5-1.1-2.5-2.5c0-1.4,1.1-2.5,2.5-2.5s2.5,1.1,2.5,2.5v0
	C261.3,160.3,260.1,161.5,258.7,161.5z M258.7,157.4c-0.8,0-1.5,0.7-1.5,1.5c0,0.8,0.7,1.5,1.5,1.5c0.8,0,1.5-0.7,1.5-1.5v0
	C260.3,158.1,259.6,157.4,258.7,157.4z"/>
<path class="st0" d="M315.5,160.6h-49.2c-0.3,0-0.5-0.2-0.5-0.5v-2.4c0-0.3,0.2-0.5,0.5-0.5h49.2c0.3,0,0.5,0.2,0.5,0.5v2.4
	C316,160.4,315.8,160.6,315.5,160.6C315.5,160.6,315.5,160.6,315.5,160.6z M266.7,159.6h48.2v-1.4h-48.2V159.6z"/>
<path class="st2" d="M246.1,176.1h71.5c3.1,0,5.7,2.5,5.7,5.7v12.1c0,3.1-2.5,5.7-5.7,5.7h-71.5c-3.1,0-5.7-2.5-5.7-5.7v-12.1
	C240.4,178.7,242.9,176.1,246.1,176.1z"/>
<path class="st1" d="M317.5,200.1h-71.5c-3.4,0-6.2-2.8-6.2-6.2v-12.1c0-3.4,2.8-6.2,6.2-6.2h71.5c3.4,0,6.2,2.8,6.3,6.2
	c0,0,0,0,0,0v12.1C323.8,197.3,321,200.1,317.5,200.1C317.6,200.1,317.5,200.1,317.5,200.1z M246.1,176.6c-2.9,0-5.2,2.3-5.2,5.2
	v12.1c0,2.9,2.3,5.2,5.2,5.2h71.5c2.9,0,5.2-2.3,5.2-5.2v-12.1c0-2.9-2.3-5.2-5.2-5.2L246.1,176.6z"/>
<path class="st0" d="M250.2,190.4c-1.4,0-2.5-1.1-2.5-2.5c0-1.4,1.1-2.5,2.5-2.5c1.4,0,2.5,1.1,2.5,2.5
	C252.7,189.3,251.6,190.4,250.2,190.4z M250.2,186.3c-0.8,0-1.5,0.7-1.5,1.5c0,0.8,0.7,1.5,1.5,1.5c0.8,0,1.5-0.7,1.5-1.5
	C251.7,187,251,186.3,250.2,186.3z"/>
<path class="st0" d="M258.7,190.4c-1.4,0-2.5-1.1-2.5-2.5c0-1.4,1.1-2.5,2.5-2.5s2.5,1.1,2.5,2.5v0
	C261.3,189.3,260.1,190.4,258.7,190.4z M258.7,186.3c-0.8,0-1.5,0.7-1.5,1.5c0,0.8,0.7,1.5,1.5,1.5c0.8,0,1.5-0.7,1.5-1.5v0
	C260.3,187,259.6,186.3,258.7,186.3z"/>
<path class="st0" d="M315.5,189.5h-49.2c-0.3,0-0.5-0.2-0.5-0.5v-2.4c0-0.3,0.2-0.5,0.5-0.5h49.2c0.3,0,0.5,0.2,0.5,0.5v2.4
	C316,189.3,315.7,189.5,315.5,189.5z M266.7,188.5h48.2v-1.4h-48.2V188.5z"/>
<path class="st2" d="M246.1,205h71.5c3.1,0,5.7,2.5,5.7,5.7v12.1c0,3.1-2.5,5.7-5.7,5.7h-71.5c-3.1,0-5.7-2.5-5.7-5.7v-12.1
	C240.4,207.6,242.9,205,246.1,205z"/>
<path class="st1" d="M317.5,229.1h-71.5c-3.4,0-6.2-2.8-6.2-6.2v-12.1c0-3.4,2.8-6.2,6.2-6.2h71.5c3.4,0,6.2,2.8,6.3,6.2
	c0,0,0,0,0,0v12.1C323.8,226.3,321,229.1,317.5,229.1C317.6,229.1,317.5,229.1,317.5,229.1z M246.1,205.6c-2.9,0-5.2,2.3-5.2,5.2
	v12.1c0,2.9,2.3,5.2,5.2,5.2h71.5c2.9,0,5.2-2.3,5.2-5.2v-12.1c0-2.9-2.3-5.2-5.2-5.2L246.1,205.6z"/>
<path class="st0" d="M250.2,219.3c-1.4,0-2.5-1.1-2.5-2.5s1.1-2.5,2.5-2.5c1.4,0,2.5,1.1,2.5,2.5
	C252.7,218.2,251.6,219.3,250.2,219.3z M250.2,215.3c-0.8,0-1.5,0.7-1.5,1.5c0,0.8,0.7,1.5,1.5,1.5c0.8,0,1.5-0.7,1.5-1.5
	C251.7,216,251,215.3,250.2,215.3z"/>
<path class="st0" d="M258.7,219.3c-1.4,0-2.5-1.1-2.5-2.5c0-1.4,1.1-2.5,2.5-2.5s2.5,1.1,2.5,2.5v0
	C261.3,218.2,260.1,219.3,258.7,219.3z M258.7,215.3c-0.8,0-1.5,0.7-1.5,1.5c0,0.8,0.7,1.5,1.5,1.5c0.8,0,1.5-0.7,1.5-1.5v0
	C260.3,216,259.6,215.3,258.7,215.3z"/>
<path class="st0" d="M315.5,218.5h-49.2c-0.3,0-0.5-0.2-0.5-0.5v-2.4c0-0.3,0.2-0.5,0.5-0.5h49.2c0.3,0,0.5,0.2,0.5,0.5v2.4
	C316,218.2,315.8,218.5,315.5,218.5C315.5,218.5,315.5,218.5,315.5,218.5z M266.7,217.5h48.2v-1.4h-48.2V217.5z"/>
<rect x="248.6" y="228.5" class="st1" width="8.6" height="3.5"/>
<path class="st1" d="M257.2,232.5h-8.6c-0.3,0-0.5-0.2-0.5-0.5v-3.5c0-0.3,0.2-0.5,0.5-0.5h8.6c0.3,0,0.5,0.2,0.5,0.5v3.5
	C257.7,232.3,257.4,232.5,257.2,232.5z M249.1,231.5h7.5v-2.4h-7.5V231.5z"/>
<rect x="306.4" y="228.5" class="st1" width="8.6" height="3.5"/>
<path class="st1" d="M315,232.5h-8.6c-0.3,0-0.5-0.2-0.5-0.5l0,0v-3.5c0-0.3,0.2-0.5,0.5-0.5l0,0h8.6c0.3,0,0.5,0.2,0.5,0.5l0,0v3.5
	C315.5,232.3,315.3,232.5,315,232.5L315,232.5z M307,231.5h7.5v-2.4H307V231.5z"/>
<rect x="150.5" y="123.8" class="st1" width="71.5" height="98"/>
<path class="st1" d="M222,222.4h-71.5c-0.3,0-0.5-0.2-0.5-0.5v-98c0-0.3,0.2-0.5,0.5-0.5c0,0,0,0,0,0H222c0.3,0,0.5,0.2,0.5,0.5l0,0
	v98C222.5,222.1,222.3,222.4,222,222.4C222,222.4,222,222.4,222,222.4z M151,221.4h70.5v-97H151L151,221.4z"/>
<path class="st2" d="M150.5,118.3H222c3.1,0,5.7,2.5,5.7,5.7v12.1c0,3.1-2.5,5.7-5.7,5.7h-71.5c-3.1,0-5.7-2.5-5.7-5.7V124
	C144.8,120.8,147.3,118.3,150.5,118.3z"/>
<path class="st1" d="M222,142.3h-71.5c-3.4,0-6.2-2.8-6.2-6.2V124c0-3.4,2.8-6.2,6.2-6.2H222c3.4,0,6.2,2.8,6.2,6.2V136
	C228.2,139.5,225.4,142.3,222,142.3z M150.5,118.8c-2.9,0-5.2,2.3-5.2,5.2V136c0,2.9,2.3,5.2,5.2,5.2H222c2.9,0,5.2-2.3,5.2-5.2V124
	c0-2.9-2.3-5.2-5.2-5.2L150.5,118.8z"/>
<path class="st0" d="M154.6,132.5c-1.4,0-2.5-1.1-2.5-2.5c0-1.4,1.1-2.5,2.5-2.5c1.4,0,2.5,1.1,2.5,2.5
	C157.1,131.4,156,132.5,154.6,132.5z M154.6,128.5c-0.8,0-1.5,0.7-1.5,1.5s0.7,1.5,1.5,1.5c0.8,0,1.5-0.7,1.5-1.5
	S155.4,128.5,154.6,128.5C154.6,128.5,154.6,128.5,154.6,128.5z"/>
<path class="st0" d="M163.2,132.5c-1.4,0-2.5-1.1-2.5-2.5c0-1.4,1.1-2.5,2.5-2.5s2.5,1.1,2.5,2.5
	C165.7,131.4,164.6,132.5,163.2,132.5z M163.2,128.5c-0.8,0-1.5,0.7-1.5,1.5s0.7,1.5,1.5,1.5c0.8,0,1.5-0.7,1.5-1.5
	C164.7,129.2,164,128.5,163.2,128.5z"/>
<path class="st0" d="M219.9,131.7h-49.2c-0.3,0-0.5-0.2-0.5-0.5v-2.4c0-0.3,0.2-0.5,0.5-0.5h49.2c0.3,0,0.5,0.2,0.5,0.5v2.4
	C220.4,131.5,220.2,131.7,219.9,131.7z M171.2,130.7h48.2v-1.4h-48.2L171.2,130.7z"/>
<path class="st2" d="M150.5,147.2H222c3.1,0,5.7,2.5,5.7,5.7V165c0,3.1-2.5,5.7-5.7,5.7h-71.5c-3.1,0-5.7-2.5-5.7-5.7v-12.1
	C144.8,149.7,147.3,147.2,150.5,147.2z"/>
<path class="st1" d="M222,171.2h-71.5c-3.4,0-6.2-2.8-6.2-6.2v-12.1c0-3.4,2.8-6.2,6.2-6.2H222c3.4,0,6.2,2.8,6.2,6.2V165
	C228.2,168.4,225.4,171.2,222,171.2z M150.5,147.7c-2.9,0-5.2,2.3-5.2,5.2V165c0,2.9,2.3,5.2,5.2,5.2H222c2.9,0,5.2-2.3,5.2-5.2
	v-12.1c0-2.9-2.3-5.2-5.2-5.2H150.5z"/>
<path class="st0" d="M154.6,161.5c-1.4,0-2.5-1.1-2.5-2.5c0-1.4,1.1-2.5,2.5-2.5c1.4,0,2.5,1.1,2.5,2.5
	C157.1,160.3,156,161.5,154.6,161.5z M154.6,157.4c-0.8,0-1.5,0.7-1.5,1.5c0,0.8,0.7,1.5,1.5,1.5c0.8,0,1.5-0.7,1.5-1.5
	C156.1,158.1,155.4,157.4,154.6,157.4z"/>
<path class="st0" d="M163.2,161.5c-1.4,0-2.5-1.1-2.5-2.5c0-1.4,1.1-2.5,2.5-2.5s2.5,1.1,2.5,2.5
	C165.7,160.3,164.6,161.5,163.2,161.5z M163.2,157.4c-0.8,0-1.5,0.7-1.5,1.5c0,0.8,0.7,1.5,1.5,1.5c0.8,0,1.5-0.7,1.5-1.5
	C164.7,158.1,164,157.4,163.2,157.4z"/>
<path class="st0" d="M219.9,160.6h-49.2c-0.3,0-0.5-0.2-0.5-0.5v-2.4c0-0.3,0.2-0.5,0.5-0.5h49.2c0.3,0,0.5,0.2,0.5,0.5v2.4
	C220.4,160.4,220.2,160.6,219.9,160.6C219.9,160.6,219.9,160.6,219.9,160.6z M171.2,159.6h48.2v-1.4h-48.2L171.2,159.6z"/>
<path class="st2" d="M150.5,176.1H222c3.1,0,5.7,2.5,5.7,5.7v12.1c0,3.1-2.5,5.7-5.7,5.7h-71.5c-3.1,0-5.7-2.5-5.7-5.7v-12.1
	C144.8,178.7,147.3,176.1,150.5,176.1z"/>
<path class="st1" d="M222,200.1h-71.5c-3.4,0-6.2-2.8-6.2-6.2v-12.1c0-3.4,2.8-6.2,6.2-6.2H222c3.4,0,6.2,2.8,6.2,6.2v12.1
	C228.2,197.3,225.4,200.1,222,200.1z M150.5,176.6c-2.9,0-5.2,2.3-5.2,5.2v12.1c0,2.9,2.3,5.2,5.2,5.2H222c2.9,0,5.2-2.3,5.2-5.2
	v-12.1c0-2.9-2.3-5.2-5.2-5.2H150.5z"/>
<path class="st0" d="M154.6,190.4c-1.4,0-2.5-1.1-2.5-2.5c0-1.4,1.1-2.5,2.5-2.5c1.4,0,2.5,1.1,2.5,2.5
	C157.1,189.3,156,190.4,154.6,190.4z M154.6,186.3c-0.8,0-1.5,0.7-1.5,1.5c0,0.8,0.7,1.5,1.5,1.5c0.8,0,1.5-0.7,1.5-1.5
	C156.1,187,155.4,186.3,154.6,186.3z"/>
<path class="st0" d="M163.2,190.4c-1.4,0-2.5-1.1-2.5-2.5c0-1.4,1.1-2.5,2.5-2.5s2.5,1.1,2.5,2.5
	C165.7,189.3,164.6,190.4,163.2,190.4z M163.2,186.3c-0.8,0-1.5,0.7-1.5,1.5c0,0.8,0.7,1.5,1.5,1.5c0.8,0,1.5-0.7,1.5-1.5
	C164.7,187,164,186.3,163.2,186.3z"/>
<path class="st0" d="M219.9,189.5h-49.2c-0.3,0-0.5-0.2-0.5-0.5v-2.4c0-0.3,0.2-0.5,0.5-0.5h49.2c0.3,0,0.5,0.2,0.5,0.5v2.4
	C220.4,189.3,220.2,189.5,219.9,189.5z M171.2,188.5h48.2v-1.4h-48.2L171.2,188.5z"/>
<path class="st2" d="M150.5,205H222c3.1,0,5.7,2.5,5.7,5.7v12.1c0,3.1-2.5,5.7-5.7,5.7h-71.5c-3.1,0-5.7-2.5-5.7-5.7v-12.1
	C144.8,207.6,147.3,205,150.5,205z"/>
<path class="st1" d="M222,229.1h-71.5c-3.4,0-6.2-2.8-6.2-6.2v-12.1c0-3.4,2.8-6.2,6.2-6.2H222c3.4,0,6.2,2.8,6.2,6.2v12.1
	C228.2,226.3,225.4,229,222,229.1z M150.5,205.6c-2.9,0-5.2,2.3-5.2,5.2v12.1c0,2.9,2.3,5.2,5.2,5.2H222c2.9,0,5.2-2.3,5.2-5.2
	v-12.1c0-2.9-2.3-5.2-5.2-5.2H150.5z"/>
<path class="st0" d="M154.6,219.3c-1.4,0-2.5-1.1-2.5-2.5s1.1-2.5,2.5-2.5c1.4,0,2.5,1.1,2.5,2.5S156,219.3,154.6,219.3z
	 M154.6,215.3c-0.8,0-1.5,0.7-1.5,1.5c0,0.8,0.7,1.5,1.5,1.5c0.8,0,1.5-0.7,1.5-1.5C156.1,216,155.4,215.3,154.6,215.3z"/>
<path class="st0" d="M163.2,219.3c-1.4,0-2.5-1.1-2.5-2.5s1.1-2.5,2.5-2.5s2.5,1.1,2.5,2.5C165.7,218.2,164.6,219.3,163.2,219.3z
	 M163.2,215.3c-0.8,0-1.5,0.7-1.5,1.5c0,0.8,0.7,1.5,1.5,1.5c0.8,0,1.5-0.7,1.5-1.5C164.7,216,164,215.3,163.2,215.3z"/>
<path class="st0" d="M219.9,218.5h-49.2c-0.3,0-0.5-0.2-0.5-0.5v-2.4c0-0.3,0.2-0.5,0.5-0.5h49.2c0.3,0,0.5,0.2,0.5,0.5v2.4
	C220.4,218.2,220.2,218.5,219.9,218.5C219.9,218.5,219.9,218.5,219.9,218.5z M171.2,217.5h48.2v-1.4h-48.2L171.2,217.5z"/>
<rect x="153" y="228.5" class="st1" width="8.6" height="3.5"/>
<path class="st1" d="M161.6,232.5H153c-0.3,0-0.5-0.2-0.5-0.5v-3.5c0-0.3,0.2-0.5,0.5-0.5h8.6c0.3,0,0.5,0.2,0.5,0.5c0,0,0,0,0,0
	v3.5C162.1,232.3,161.9,232.5,161.6,232.5C161.6,232.5,161.6,232.5,161.6,232.5z M153.5,231.5h7.5v-2.4h-7.5V231.5z"/>
<rect x="210.9" y="228.5" class="st1" width="8.6" height="3.5"/>
<path class="st1" d="M219.5,232.5h-8.6c-0.3,0-0.5-0.2-0.5-0.5v-3.5c0-0.3,0.2-0.5,0.5-0.5h8.6c0.3,0,0.5,0.2,0.5,0.5c0,0,0,0,0,0
	v3.5C220,232.3,219.7,232.5,219.5,232.5C219.5,232.5,219.5,232.5,219.5,232.5z M211.4,231.5h7.5v-2.4h-7.5V231.5z"/>
<path class="st0" d="M346.1,205.2h-13c-0.3,0-0.5-0.2-0.5-0.5v-10.3c0-0.3,0.2-0.5,0.5-0.5h13c0.3,0,0.5,0.2,0.5,0.5v10.3
	C346.5,205,346.3,205.2,346.1,205.2z M333.6,204.2h11.9v-9.3h-11.9V204.2z"/>
<path class="st0" d="M339.6,202.8c-1.8,0-3.2-1.4-3.2-3.2s1.4-3.2,3.2-3.2s3.2,1.4,3.2,3.2c0,0,0,0,0,0
	C342.8,201.4,341.4,202.8,339.6,202.8z M339.6,197.4c-1.2,0-2.2,1-2.2,2.2c0,1.2,1,2.2,2.2,2.2s2.2-1,2.2-2.2c0,0,0,0,0,0
	C341.8,198.4,340.8,197.4,339.6,197.4z"/>
<path class="st2" d="M106.6,67.7c-0.5-0.7-1.2-1.3-2-1.6c-0.8-0.3-1.8,0.1-2.1,1c-2-3.2-6.4-3.9-10.2-3.2C86.1,65,81.8,67.4,80,73.7
	c-0.7,2.4-0.8,5-1.6,7.3c-1,2.2-2.2,4.4-3.7,6.3c-0.2,0.2-0.3,0.5-0.3,0.8c0.1,0.3,0.2,0.5,0.4,0.7c0.9,1,2,1.7,3.2,2.2
	c1.2,0.5,2.6,0.2,3.6-0.6c-0.6,0.8-0.6,1.9,0,2.8c0.7,0.8,1.5,1.3,2.5,1.6c6.2,2,13.9-0.1,18.7-4.2c3.2-2.7,5.4-6.4,6.5-10.4
	C110.6,75.3,109.5,71.5,106.6,67.7z"/>
<path class="st1" d="M89.3,95.9c-1.8,0-3.6-0.3-5.3-0.8c-1.1-0.3-2-0.9-2.7-1.7c-0.4-0.5-0.6-1.2-0.6-1.9c-0.9,0.3-1.9,0.3-2.8,0
	c-1.3-0.5-2.4-1.3-3.4-2.3c-0.3-0.3-0.5-0.6-0.6-1c0-0.4,0.1-0.8,0.4-1.1l0.6-1c1.2-1.6,2.2-3.4,3-5.3c0.5-1.3,0.8-2.7,1-4.1
	c0.2-1,0.4-2.1,0.7-3.2c2-7.4,7.6-9.3,12.7-10.3c3.3-0.6,7.8-0.2,10.2,2.8c0.1-0.1,0.3-0.2,0.4-0.3c0.6-0.3,1.2-0.4,1.9-0.2
	c0.9,0.3,1.7,1,2.2,1.8c3.3,4.3,4.2,8.2,3,12.8c-1.1,4.1-3.4,7.9-6.7,10.7C99.4,94.1,94.4,95.9,89.3,95.9z M81.6,89.9
	c0.1,0,0.3,0.1,0.4,0.1c0.2,0.2,0.2,0.5,0,0.7c-0.5,0.6-0.4,1.5,0.1,2.1c0.6,0.7,1.4,1.1,2.3,1.3C90,96,97.5,94.3,102.6,90
	c3.1-2.7,5.3-6.2,6.3-10.2c1.1-4.2,0.3-7.9-2.8-11.9l0,0c-0.4-0.6-1-1.1-1.7-1.4c-0.4-0.1-0.7-0.1-1.1,0.1c-0.2,0.1-0.3,0.3-0.4,0.5
	c-0.1,0.2-0.2,0.3-0.4,0.4c-0.2,0-0.4-0.1-0.5-0.2c-2-3.1-6.4-3.6-9.6-3c-6.9,1.3-10.4,4.1-11.9,9.6c-0.3,1-0.5,2-0.6,3
	c-0.2,1.4-0.6,2.9-1,4.3c-0.8,1.9-1.8,3.8-3,5.5l-0.7,1c-0.1,0.1-0.2,0.3-0.2,0.4c0,0.1,0.2,0.3,0.3,0.4c0.8,0.9,1.8,1.6,3,2
	c1.1,0.4,2.2,0.2,3.1-0.5C81.4,89.9,81.5,89.8,81.6,89.9L81.6,89.9z"/>
<path class="st2" d="M106.3,79.6c0,0,3.7,5.3,3,6.4c-0.7,1.1-3.2,0.5-3.2,0.5"/>
<path class="st1" d="M107.6,87.2c-0.6,0-1.1-0.1-1.6-0.2c-0.3-0.1-0.4-0.4-0.4-0.6c0.1-0.3,0.4-0.4,0.6-0.4c0.7,0.2,2.2,0.4,2.6-0.2
	c0.4-0.6-1.1-3.2-3-5.8c-0.2-0.2-0.1-0.5,0.1-0.7c0,0,0,0,0,0c0.2-0.2,0.5-0.1,0.7,0.1c1.2,1.7,3.8,5.7,3,7
	C109.2,86.9,108.4,87.3,107.6,87.2z"/>
<path class="st2" d="M105.3,72.6c2.3,1.8,1.7,5.7,1.8,8.2c0.1,3.6,0,7.1-0.1,10.7c-0.1,2.3-5.9,2.4-7,1.8l1.1,8.9
	c0,0-2.8,0.8-7.6-1.2s-4.8-3.2-4.8-3.2L89,87.4c0,0,3.9-0.1,6-4.7S96.9,71,96.9,71S103.1,70.8,105.3,72.6z"/>
<path class="st1" d="M99.6,102.8c-2.1-0.1-4.2-0.5-6.2-1.4c-4.6-2-5.1-3.2-5.1-3.6l0.1-10.3c0-0.3,0.2-0.5,0.5-0.5
	c0.1,0,3.6-0.1,5.6-4.4c2.1-4.5,1.9-11.4,1.9-11.5c0-0.1,0.1-0.3,0.1-0.4c0.1-0.1,0.2-0.1,0.4-0.2c0.3,0,6.4-0.2,8.7,1.7l0,0
	c2.1,1.6,2,4.8,2,7.2c0,0.5,0,0.9,0,1.4c0,3.6,0,7.2-0.1,10.7c-0.1,0.8-0.6,1.5-1.3,1.8c-1.7,0.8-3.7,1-5.6,0.7l1,8.1
	c0,0.2-0.1,0.5-0.4,0.5C100.8,102.8,100.2,102.9,99.6,102.8z M89.3,97.7c0.1,0.2,0.8,1.2,4.5,2.8c2.1,1,4.4,1.5,6.8,1.3l-1-8.4
	c0-0.3,0.1-0.5,0.4-0.6c0.1,0,0.2,0,0.4,0.1c1.8,0.4,3.7,0.3,5.4-0.5c0.5-0.3,0.8-0.6,0.8-0.9c0.1-3.5,0.1-7.1,0.1-10.7
	c0-0.4,0-0.9,0-1.4c0-2.3,0.1-5.1-1.6-6.4c-1.6-1.2-5.6-1.5-7.6-1.5c0,1.7-0.1,7.4-2,11.4c-1.9,4.1-4.8,4.8-6,5L89.3,97.7z"/>
<path class="st2" d="M106.9,88.8c0,0-2.7,1.8-4.3-1"/>
<path class="st1" d="M105,89.9c-0.3,0-0.5,0-0.8-0.1c-0.9-0.3-1.7-0.9-2.1-1.7c-0.1-0.2,0-0.6,0.2-0.7c0.2-0.1,0.6,0,0.7,0.2
	c0.3,0.6,0.8,1,1.5,1.2c0.7,0.1,1.5,0,2.1-0.4c0.2-0.2,0.5-0.1,0.7,0.1c0,0,0,0,0,0c0.2,0.2,0.1,0.5-0.1,0.7
	C106.5,89.6,105.8,89.8,105,89.9z"/>
<path class="st2" d="M99.5,82.1c-0.1-0.9-0.5-1.7-1-2.4c-0.4-0.6-0.8-1.1-1.3-1.6c-0.5-0.5-1.2-0.7-1.9-0.5
	c-0.6,0.2-1.1,0.6-1.4,1.1c-0.3,0.6-0.4,1.2-0.4,1.8c0,2.7,1.4,5.3,3.7,6.7l-0.2-0.2"/>
<path class="st1" d="M97.1,87.6c-0.1,0-0.2,0-0.3-0.1c-2.5-1.5-4-4.2-3.9-7.1c0-0.7,0.2-1.4,0.5-2c0.3-0.7,1-1.2,1.7-1.4
	c0.8-0.2,1.7,0.1,2.4,0.6c0.6,0.5,1,1.1,1.4,1.7c0.6,0.8,1,1.7,1.1,2.7c0,0.3-0.2,0.5-0.5,0.5c0,0,0,0,0,0c-0.3,0-0.5-0.2-0.5-0.5
	c-0.1-0.8-0.5-1.5-1-2.2c-0.3-0.5-0.7-1-1.2-1.5c-0.4-0.4-1-0.5-1.5-0.4c-0.4,0.1-0.8,0.5-1,0.9c-0.2,0.5-0.4,1-0.3,1.6
	c0,2.4,1.1,4.6,3,5.9c0.1,0,0.2,0.1,0.3,0.2l0.2,0.2c0.2,0.2,0.2,0.5,0,0.7C97.4,87.6,97.2,87.6,97.1,87.6z"/>
<path class="st1" d="M100.1,93.3c-1.8-0.5-3.3-1.5-4.5-2.9c0,0,0.3,5.4,5,6.9L100.1,93.3z"/>
<path class="st1" d="M100.6,97.7c-0.1,0-0.1,0-0.2,0c-5-1.5-5.4-7.1-5.4-7.3c0-0.3,0.2-0.5,0.5-0.5c0.2,0,0.3,0.1,0.4,0.2
	c1.1,1.3,2.6,2.2,4.2,2.7c0.2,0.1,0.3,0.2,0.4,0.4l0.5,4c0,0.2,0,0.3-0.2,0.5C100.8,97.7,100.7,97.7,100.6,97.7z M96.4,91.9
	c0.5,2,1.8,3.6,3.6,4.5l-0.4-2.8C98.5,93.2,97.4,92.7,96.4,91.9z"/>
<ellipse transform="matrix(0.1426 -0.9898 0.9898 0.1426 12.8873 169.2842)" class="st1" cx="104.2" cy="77.2" rx="1.3" ry="0.5"/>
<path class="st2" d="M123,111.4c-2.4,0.9-3.7-0.4-4.7-3.8c-0.2-0.6-0.2-1.2-0.2-1.8c0.1-0.9,0.3-1.8,0.5-2.7
	c0.7-2.5,1.5-4.9,2.6-7.2c0.3-0.6,0.8-1.3,1.3-1.1s0.6,0.9,0.6,1.4c0,1.5-0.3,3-0.2,4.6c3.2-0.8,5.2-4.2,8.3-4.9
	c0.9-0.2,1.9-0.3,2,0.8c0.1,1.4-2.4,2.4-3.2,3.2c0.9-0.8,2-1.4,3.1-1.8c0.3-0.1,0.7-0.2,1-0.2c0.4,0,0.6,0.3,0.7,0.7
	c0,0.3-0.1,0.6-0.4,0.8c-0.5,0.5-1,1-1.6,1.5c0.6-0.7,1.4-1.1,2.2-1.3c0.4-0.1,0.9,0,1.2,0.3c0.4,0.6-0.3,1.2-0.9,1.6
	c0.5-0.4,1-0.7,1.7-0.8c0.6-0.1,1.3,0.3,1.4,0.9c0,0.5-0.3,0.9-0.7,1.2C134.6,105.8,127,109.8,123,111.4z"/>
<path class="st1" d="M121.6,112.2c-0.4,0-0.8-0.1-1.2-0.3c-1.1-0.5-1.9-1.8-2.6-4.2c-0.2-0.7-0.2-1.3-0.2-2c0.1-0.9,0.3-1.9,0.5-2.8
	c0.7-2.5,1.5-4.9,2.6-7.3c0.5-1.1,1.2-1.6,2-1.4c0.4,0.2,1,0.6,0.9,1.9c0,0.7-0.1,1.3-0.1,2s-0.1,1.3-0.1,1.9
	c1.2-0.6,2.4-1.3,3.4-2.2c1.2-1.1,2.7-2,4.3-2.5c0.7-0.2,1.4-0.2,2,0.2c0.4,0.3,0.6,0.7,0.6,1.1c0,0.2,0,0.5-0.1,0.7
	c0.2,0,0.4,0,0.7,0c0.6,0.1,1,0.6,1.1,1.2c0,0.1,0,0.3,0,0.4c0.6-0.1,1.1,0.1,1.5,0.6c0.1,0.2,0.1,0.3,0.2,0.5h0.1
	c0.5-0.1,1,0.1,1.4,0.4c0.3,0.2,0.5,0.6,0.5,1c0,0.6-0.3,1.2-0.8,1.6c-3.2,3.2-10.9,7.2-15,8.8l0,0
	C122.7,112.1,122.2,112.2,121.6,112.2z M123,111.4L123,111.4z M122.3,95.3c-0.2,0-0.5,0.3-0.7,0.8c-1,2.3-1.9,4.7-2.5,7.1
	c-0.2,0.9-0.4,1.7-0.5,2.6c-0.1,0.6,0,1.1,0.1,1.7c0.6,2,1.3,3.1,2.1,3.5c0.6,0.3,1.3,0.2,1.9-0.1l0,0c4.1-1.6,11.6-5.6,14.6-8.6
	c0.2-0.2,0.5-0.6,0.5-0.8c0-0.1-0.1-0.2-0.2-0.3c-0.2-0.1-0.4-0.2-0.7-0.2c-0.3,0.1-0.6,0.2-0.9,0.4c-0.2,0.1-0.4,0.3-0.6,0.4
	c-0.2,0.1-0.6,0.1-0.7-0.2c-0.1-0.2-0.1-0.5,0.1-0.7l0.5-0.4c0.1-0.1,0.3-0.3,0.3-0.4c0,0,0-0.1,0-0.1c-0.1-0.1-0.4-0.2-0.7-0.1
	c-0.4,0.1-0.7,0.2-1,0.4c-0.3,0.3-0.7,0.6-1,0.8c-0.2,0.2-0.5,0.1-0.7-0.1c-0.2-0.2-0.2-0.5,0-0.7c0.3-0.4,0.6-0.7,1-0.9
	c0.2-0.2,0.4-0.4,0.5-0.6s0.2-0.3,0.2-0.4s-0.1-0.2-0.3-0.2c-0.3,0-0.5,0-0.8,0.1c-0.4,0.2-0.8,0.3-1.2,0.5
	c-0.3,0.2-0.6,0.4-0.9,0.6c-0.3,0.2-0.6,0.4-0.9,0.6c-0.2,0.2-0.5,0.2-0.7-0.1c-0.2-0.2-0.2-0.5,0.1-0.7c0.6-0.5,1.2-0.9,1.9-1.3
	c0.6-0.4,1.2-1,1.1-1.4c0-0.1-0.1-0.3-0.2-0.4c-0.1-0.1-0.4-0.2-1.2,0c-1.4,0.5-2.8,1.3-3.9,2.3c-1.3,1.2-2.8,2.1-4.4,2.6
	c-0.2,0-0.3,0-0.4-0.1c-0.1-0.1-0.2-0.2-0.2-0.4c0-0.9,0-1.8,0.1-2.7c0-0.6,0.1-1.3,0.1-1.9C122.6,95.5,122.5,95.3,122.3,95.3
	L122.3,95.3z"/>
<path class="st2" d="M123,100.9c1.5,1.8,1.5,4.4,0.1,6.3h0.3"/>
<path class="st1" d="M123.1,107.7c-0.3,0-0.5-0.2-0.5-0.5c0-0.1,0-0.2,0.1-0.3c1.3-1.7,1.3-4-0.1-5.7c-0.2-0.2-0.2-0.5,0-0.7
	c0.2-0.2,0.5-0.2,0.7,0c0,0,0,0,0,0c1.5,1.8,1.7,4.4,0.5,6.4c0,0.1,0,0.1,0,0.2c0,0.3-0.2,0.5-0.5,0.5L123.1,107.7L123.1,107.7z"/>
<path class="st2" d="M128.7,84h71.5c3.1,0,5.7,2.5,5.7,5.7v12.1c0,3.1-2.5,5.7-5.7,5.7h-71.5c-3.1,0-5.7-2.5-5.7-5.7V89.7
	C123,86.5,125.5,84,128.7,84z"/>
<path class="st1" d="M200.1,108h-71.5c-3.4,0-6.2-2.8-6.2-6.2V89.7c0-3.4,2.8-6.2,6.2-6.2h71.5c3.4,0,6.2,2.8,6.2,6.2v12.1
	C206.3,105.2,203.6,108,200.1,108z M128.7,84.5c-2.9,0-5.2,2.3-5.2,5.2v12.1c0,2.9,2.3,5.2,5.2,5.2h71.5c2.9,0,5.2-2.3,5.2-5.2V89.7
	c0-2.9-2.3-5.2-5.2-5.2H128.7z"/>
<path class="st0" d="M132.8,98.2c-1.4,0-2.6-1.1-2.6-2.5c0-1.4,1.1-2.6,2.5-2.6s2.6,1.1,2.6,2.5c0,0,0,0,0,0
	C135.3,97.1,134.2,98.2,132.8,98.2z M132.8,94.2c-0.8,0-1.5,0.7-1.5,1.5c0,0.8,0.7,1.5,1.5,1.5c0.8,0,1.5-0.7,1.5-1.5c0,0,0,0,0,0
	C134.3,94.9,133.6,94.2,132.8,94.2C132.8,94.1,132.8,94.1,132.8,94.2L132.8,94.2z"/>
<path class="st0" d="M141.3,98.2c-1.4,0-2.6-1.1-2.6-2.5c0-1.4,1.1-2.6,2.5-2.6s2.6,1.1,2.6,2.5c0,0,0,0,0,0
	C143.9,97.1,142.7,98.2,141.3,98.2z M141.3,94.2c-0.8,0-1.5,0.7-1.5,1.5c0,0.8,0.7,1.5,1.5,1.5c0.8,0,1.5-0.7,1.5-1.5c0,0,0,0,0,0
	C142.9,94.9,142.2,94.2,141.3,94.2C141.4,94.1,141.3,94.1,141.3,94.2L141.3,94.2z"/>
<path class="st0" d="M198,97.4h-49.2c-0.3,0-0.5-0.2-0.5-0.5v-2.4c0-0.3,0.2-0.5,0.5-0.5H198c0.3,0,0.5,0.2,0.5,0.5v2.4
	C198.6,97.2,198.3,97.4,198,97.4z M149.3,96.4h48.2V95h-48.2V96.4z"/>
<path class="st2" d="M73,237.5l-1,7.2c0,0,22.2-1.2,21.4-2.9c-0.8-1.7-7-4-7-4"/>
<path class="st1" d="M72,245.2c-0.1,0-0.3-0.1-0.4-0.2c-0.1-0.1-0.1-0.3-0.1-0.4l1-7.2c0-0.3,0.3-0.5,0.6-0.4c0,0,0,0,0,0
	c0.3,0,0.5,0.3,0.4,0.6l-0.9,6.6c9.1-0.5,18.8-1.5,20.3-2.3c-0.8-1.1-4.4-2.7-6.6-3.5c-0.3-0.1-0.4-0.4-0.3-0.7
	c0.1-0.3,0.4-0.4,0.6-0.3c0.7,0.2,6.5,2.4,7.3,4.3c0.1,0.2,0.1,0.5,0,0.7c-1,1.7-15.6,2.6-21.8,2.9H72z"/>
<path class="st2" d="M118.5,108.9c0,0,11,11,16.5,9.5c3.2-0.9,18.1-8.4,18.3-8.7c0.7-1.2,2.1-5.1,3-6.1c0.3-0.5,0.8-0.8,1.3-1
	c2.8-0.5,0.1,4.6-0.6,5.4c2.4-1.5,4.9-3,7.4-4.2c0.3-0.2,0.6-0.2,0.9-0.1c0.3,0.2,0.4,0.6,0.3,0.9c-0.2,0.3-0.4,0.6-0.7,0.8
	l-4.3,3.4c1.3-1,2.6-2,4-2.8c0.5-0.3,1.9-1.2,2.4-0.6c0.9,1-3.7,4.5-4.5,5.1c1.3-1.2,2.7-2.2,4.2-3c0.4-0.3,0.9-0.4,1.4-0.3
	c0.2,0.3-0.1,0.7-0.4,0.9l-3,2.3c1.5-1.1,3.2-2.3,5.1-2.3c0,0.3-0.2,0.6-0.5,0.8c-4.4,3.5-9,8-13.6,11.2c-6.1,4.3-12.8,10.3-20.4,11
	c-9,0.8-15.6-5.8-21.8-11.5"/>
<path class="st1" d="M133.6,131.7c-8.1,0-14.4-5.9-19.9-11.1l-0.7-0.7c-0.2-0.2-0.2-0.5,0-0.7c0,0,0,0,0,0c0.2-0.2,0.5-0.2,0.7,0
	c0,0,0,0,0,0l0.7,0.7c6,5.6,12.2,11.4,20.6,10.7c6.1-0.5,11.6-4.6,16.8-8.5c1.1-0.8,2.2-1.6,3.3-2.4c2.7-2,5.4-4.2,7.9-6.5
	c1.7-1.5,3.5-3,5.3-4.5c-1.3,0.5-2.5,1.1-3.6,2c-0.2,0.2-0.5,0.1-0.7-0.1s-0.1-0.5,0.1-0.7l0,0l3-2.3c-0.1,0.1-0.3,0.1-0.4,0.2
	c-0.7,0.4-1.4,0.8-2,1.2c-0.9,0.8-1.7,1.4-2.2,1.7c-0.2,0.2-0.5,0.1-0.7-0.1c-0.2-0.2-0.2-0.5,0-0.7c0.7-0.6,1.4-1.2,2.2-1.7
	c1.5-1.3,2.3-2.3,2.3-2.7c0,0,0,0-0.1,0c-0.6,0.1-1.1,0.4-1.6,0.7c-1,0.6-2,1.2-2.9,1.9l-1.1,0.9c-0.2,0.2-0.5,0.1-0.7-0.1
	c-0.2-0.2-0.1-0.5,0.1-0.7l0,0c0.4-0.3,0.7-0.6,1.1-0.9l3.2-2.5c0.2-0.1,0.4-0.3,0.5-0.5c0-0.1,0-0.2,0-0.2c0,0-0.1,0-0.4,0.1
	c-2.6,1.3-5.2,2.9-7.4,4.2c-0.2,0.1-0.5,0.1-0.6-0.1c-0.2-0.2-0.2-0.5,0-0.7c0.7-0.8,2.1-3.8,1.7-4.5c-0.1-0.2-0.4-0.1-0.6-0.1
	c-0.4,0.1-0.8,0.4-1,0.8c-0.7,1.2-1.3,2.4-1.8,3.7c-0.4,1-0.8,1.9-1.1,2.4c-0.4,0.7-16,8.2-18.6,8.9c-5.7,1.6-16.5-9.1-16.9-9.6
	c-0.2-0.2-0.2-0.5,0-0.7c0,0,0,0,0,0c0.2-0.2,0.5-0.2,0.7,0c0.1,0.1,10.9,10.8,16,9.3c3-0.9,16.8-7.7,18-8.5c0.3-0.5,0.6-1.3,1-2.2
	c0.5-1.4,1.2-2.7,1.9-3.9c0.4-0.6,1-1,1.7-1.2c0.6-0.2,1.3,0,1.6,0.6c0.5,0.9-0.1,2.5-0.7,3.8c1.8-1,3.7-2.2,5.7-3.2
	c0.4-0.2,0.9-0.3,1.3-0.1c0.5,0.3,0.7,0.9,0.5,1.5c0.5-0.1,0.9,0,1.3,0.3c0.2,0.2,0.3,0.5,0.2,0.8c-0.1,0.3-0.2,0.6-0.4,0.9
	c0.3-0.1,0.7-0.1,1,0c0.1,0,0.2,0.1,0.3,0.2c0.2,0.3,0.2,0.6,0.1,0.9c0.4-0.1,0.7-0.1,1.1-0.1c0.3,0,0.5,0.2,0.5,0.5
	c0,0.5-0.3,0.9-0.7,1.2c-1.8,1.4-3.8,3.1-5.6,4.7c-2.6,2.3-5.3,4.6-8,6.5c-1.1,0.8-2.2,1.6-3.3,2.4c-5.1,3.8-10.9,8.1-17.4,8.7
	C134.5,131.7,134.1,131.7,133.6,131.7z"/>
<polygon class="st1" points="113.6,140.2 126.3,238.7 112.7,238.4 96.7,172.8 87.7,238.6 72.3,237.5 76.9,135.5 "/>
<path class="st3" d="M107.6,98.7l23.1,15.3l-6.6,17.5c0,0-28.5-18.8-28.6-23.2C95.2,104,107.6,98.7,107.6,98.7z"/>
<path class="st3" d="M116.9,157.7c0,0-0.7-30.1-2.9-43.1c-0.9-5.5-0.6-9.4-2.4-12.4c-6.2-10.1-30.2-7.1-33.7-0.1s-4.3,57.4-4.3,57.4
	L116.9,157.7z"/>
<path class="st2" d="M112.7,238.4c0,0-0.4,5.9,0.4,6.9s21.7-0.8,20.8-3s-8.7-4.3-8.7-4.3"/>
<path class="st1" d="M115.8,246.1c-1.7,0-2.9-0.1-3.1-0.4c-0.8-1-0.6-5.8-0.5-7.3c0-0.3,0.3-0.5,0.5-0.5c0.3,0,0.5,0.3,0.5,0.5
	c-0.2,2.7-0.1,5.9,0.2,6.5c1.4,0.5,14.2-0.4,18.8-2c1-0.4,1.2-0.6,1.2-0.6c-0.6-1.4-5.4-3.1-8.3-3.9c-0.3-0.1-0.4-0.3-0.4-0.6
	c0.1-0.3,0.3-0.4,0.6-0.4c0,0,0,0,0,0c0.8,0.2,8,2.1,9,4.6c0.1,0.3,0.2,0.9-0.7,1.4C131.4,244.8,121.1,246.1,115.8,246.1z
	 M113.5,245L113.5,245z"/>
<path class="st1" d="M124,132c-0.1,0-0.2,0-0.3-0.1c-0.6-0.4-15.9-10.1-21.1-15.2c-0.2-0.2-0.2-0.5,0-0.7c0,0,0,0,0,0
	c0.2-0.2,0.5-0.2,0.7,0c0,0,0,0,0,0c5.2,5,20.8,15,21,15.1c0.2,0.1,0.3,0.4,0.2,0.7c0,0,0,0,0,0C124.4,131.9,124.2,132,124,132z"/>
</svg>
